<?xml version="1.0" encoding="UTF-8" standalone="no"?>
<!DOCTYPE svg PUBLIC "-//W3C//DTD SVG 1.1//EN" "http://www.w3.org/Graphics/SVG/1.1/DTD/svg11.dtd">
<svg width="100%" height="100%" viewBox="0 0 1147 1565" version="1.1" xmlns="http://www.w3.org/2000/svg" xmlns:xlink="http://www.w3.org/1999/xlink" xml:space="preserve" xmlns:serif="http://www.serif.com/" fill="#008bff" style="fill-rule:evenodd;clip-rule:evenodd;stroke-linejoin:round;stroke-miterlimit:2;">
    <g transform="matrix(1,0,0,1,-437.926016,-204.762938)">
        <g transform="matrix(1.532227,0,0,1.532227,436,203)">
            <path d="M387.505,240.516C390.642,241.344 390.475,240.913 393.495,240.517C394.904,240.959 469.117,240.005 489.489,265.507C517.185,300.179 476.458,312.599 466.337,317.154C464.775,317.004 464.938,317.158 463.515,317.662C460.327,318.284 430.214,324.155 423.517,324.619C385.985,327.218 319.568,355.016 307.477,363.457C300.272,368.487 284.569,377.402 282.541,378.554L280.611,379.697C275.892,382.876 245.445,403.378 224.716,423.675C223.426,425.108 223.591,424.991 222.547,426.548C215.467,432.47 215.898,432.716 209.338,439.385C207.173,440.927 207.458,440.947 205.695,442.727C199.326,452.525 100.726,545.464 102.671,676.499C102.896,691.648 104.363,691.387 106.429,705.526C106.631,706.906 108.139,717.225 113.556,721.447L115.549,723.444C116.062,723.947 119.341,727.16 124.52,723.535C159.151,699.299 178.028,579.679 274.842,484.843C376.911,384.858 477.642,384.338 482.497,384.304C553.361,383.81 553.444,392.04 582.643,400.1C597.256,404.134 596.096,406.561 608.55,411.305L611.542,412.442C617.986,417.543 656.694,433.918 695.94,484.13C756.472,561.575 749.243,652.71 749.229,656.5C749.06,700.348 751.964,700.569 742.659,743.528C741.201,750.258 731.349,795.737 716.747,825.614C706.746,846.076 706.686,845.865 705.938,847.683C695.888,872.109 662.959,914.221 658.718,919.645L657.545,921.541C644.704,934.287 645.596,934.968 632.566,947.575C589.531,989.211 548.358,992.655 566.11,947.348C572.914,929.982 604.733,864.504 608.207,857.356C615.43,842.491 614.634,842.231 634.018,787.329C652.043,736.274 675.135,603.452 601.448,530.55L600.204,528.797L598.448,527.553C595.168,522.934 580.445,509.338 559.364,498.783C502.688,470.405 438.77,497.604 437.554,498.586C437.417,498.696 392.666,516.979 363.55,546.552C362,547.597 362.156,547.417 360.641,548.708C358.886,550.111 359.055,549.993 357.538,551.54C321.257,588.545 322.747,589.78 305.666,611.611C299.456,619.547 300.149,619.918 299.539,620.533C292.035,628.098 293.265,628.869 270.707,669.61C261.474,686.287 234.23,759.979 192.267,806.283C151.085,851.726 119.681,844.436 105.49,843.677C104.108,843.19 104.25,843.012 102.661,843.15C102.474,843.054 101.994,842.329 100.363,841.965C87.059,838.996 87.186,838.776 75.309,831.825C67.516,827.265 68.821,825.716 61.284,820.796C51.101,814.15 46.959,804.174 41.457,799.539C40.44,798.021 40.588,798.127 39.301,796.62C-7.456,726.71 2.019,649.261 2.092,642.494C2.163,635.878 2.671,588.433 12.159,560.401C20.064,537.045 18.64,536.525 19.908,534.801C21.698,532.369 31.21,505.9 32.123,503.36C44.43,469.111 89.569,402.951 108.456,383.459C132.161,358.996 132.513,359.524 156.451,335.448L158.353,334.286C164.494,329.434 210.097,293.4 239.647,279.854C244.508,277.625 287.942,257.713 301.532,254.581C328.264,248.421 328.388,243.423 387.505,240.516Z" style="fill:rgb(0,138,254);fill-opacity:0.99;"/>
            <path d="M426.751,749.615L425.56,752.545C425.132,753.078 422.284,756.625 420.893,759.702C413.322,776.45 387.206,818.202 384.094,823.178C368.711,847.77 367.076,846.524 365.801,848.688C353.949,868.8 318.744,903.064 318.452,903.464C316.141,905.295 316.178,905.173 314.485,907.477C307.632,911.316 301.748,918.374 284.657,928.776C250.969,949.278 235.13,946.847 224.528,947.862C196.735,950.524 179.673,933.524 177.858,930.301C158.02,895.074 196.538,895.729 239.282,850.329C240.558,848.901 240.392,849.029 241.453,847.452C242.798,846.329 247.635,842.29 256.299,831.364C256.457,831.195 257.288,830.307 258.314,829.29C284.52,801.835 327.506,729.856 332.906,720.813C377.224,646.604 384.02,611.343 424.411,574.395C463.703,538.451 521.059,550.455 527.638,552.122C565.303,561.667 585.11,604.827 587.429,617.526C596.93,669.548 592.916,669.83 592.809,683.497C592.036,782.039 529.31,885.634 487.728,928.66C486.779,929.748 485.956,930.619 485.799,930.785L484.551,932.55C480.045,937.026 442.396,974.432 424.471,984.452C402.681,996.633 361.027,1026.205 317.462,1021.952C315.834,1021.793 301.236,1020.368 298.35,1014.661C287.921,994.04 299.128,987.244 318.235,974.118C368.961,939.27 399.38,893.896 408.331,882.389C421.135,865.928 445.068,826.618 447.239,822.362C448.162,820.552 458.529,800.225 458.88,799.796C467.872,788.786 519.156,674.462 503.831,653.303C489.824,633.964 457.941,694.198 446.774,713.645C445.134,716.501 428.446,745.562 426.751,749.615Z" style="fill:rgb(0,138,254);fill-opacity:0.99;"/>
            <path d="M455.542,39.464L456.643,41.447C458.46,45.733 478.178,72.028 468.422,112.474C456.622,161.393 415.34,175.604 408.635,177.912C353.625,196.848 315.163,150.798 308.245,138.642C281.675,91.953 305.517,37.33 326.323,23.237C329.974,20.764 349.393,-1.517 388.508,1.416C433.033,4.755 444.471,28.144 455.542,39.464Z" style="fill:rgb(0,138,255);fill-opacity:0.99;"/>
            <path d="M387.505,240.516C390.519,240.249 390.341,240.237 393.495,240.517C390.475,240.913 390.642,241.344 387.505,240.516Z" style="fill:rgb(0,112,206);fill-opacity:0.17;"/>
            <path d="M318.452,903.464C316.579,905.698 316.739,905.577 314.485,907.477C316.178,905.173 316.141,905.295 318.452,903.464Z" style="fill:rgb(0,102,187);fill-opacity:0.17;"/>
            <path d="M209.338,439.385C207.747,441.462 207.836,441.373 205.695,442.727C207.458,440.947 207.173,440.927 209.338,439.385Z" style="fill:rgb(0,108,199);fill-opacity:0.19;"/>
            <path d="M39.301,796.62C40.588,798.127 40.44,798.021 41.457,799.539C40.01,798.138 40.238,798.211 39.301,796.62Z" style="fill:rgb(0,107,197);fill-opacity:0.16;"/>
            <path d="M363.55,546.552C362.233,547.888 362.346,547.686 360.641,548.708C362.156,547.417 362,547.597 363.55,546.552Z" style="fill:rgb(0,106,195);fill-opacity:0.17;"/>
            <path d="M224.716,423.675C223.735,425.255 223.882,425.223 222.547,426.548C223.591,424.991 223.426,425.108 224.716,423.675Z" style="fill:rgb(0,105,193);fill-opacity:0.17;"/>
            <path d="M241.453,847.452C240.392,849.029 240.558,848.901 239.282,850.329C240.267,848.74 240.122,848.773 241.453,847.452Z" style="fill:rgb(0,105,193);fill-opacity:0.17;"/>
            <path d="M487.728,928.66C486.723,930.283 486.864,930.244 485.555,931.554L485.799,930.785C485.956,930.619 486.779,929.748 487.728,928.66Z" style="fill:rgb(0,104,190);fill-opacity:0.18;"/>
            <path d="M258.314,829.29L256.299,831.364C256.457,831.195 257.288,830.307 258.314,829.29Z" style="fill:rgb(0,117,215);fill-opacity:0.13;"/>
            <path d="M113.556,721.447C114.672,722.529 114.559,722.419 115.549,723.444L113.556,721.447Z" style="fill:rgb(0,104,191);fill-opacity:0.1;"/>
            <path d="M426.751,749.615C426.355,751.316 426.669,751.25 425.56,752.545L426.751,749.615Z" style="fill:rgb(0,106,196);fill-opacity:0.16;"/>
            <path d="M608.55,411.305C610.165,411.641 610.155,411.252 611.542,412.442L608.55,411.305Z" style="fill:rgb(0,106,195);fill-opacity:0.16;"/>
            <path d="M598.448,527.553L600.204,528.797L600.444,529.556C599.361,528.473 599.501,528.612 598.448,527.553Z" style="fill:rgb(0,100,184);fill-opacity:0.16;"/>
            <path d="M463.515,317.662C464.938,317.158 464.775,317.004 466.337,317.154L463.515,317.662Z" style="fill:rgb(0,112,205);fill-opacity:0.21;"/>
            <path d="M102.661,843.15C104.25,843.012 104.108,843.19 105.49,843.677L102.661,843.15Z" style="fill:rgb(0,111,204);fill-opacity:0.21;"/>
            <path d="M600.204,528.797L601.448,530.55L600.444,529.556L600.204,528.797Z" style="fill:rgb(0,109,200);fill-opacity:0.14;"/>
            <path d="M282.541,378.554C281.898,378.935 281.255,379.316 280.611,379.697C281.255,379.316 281.898,378.935 282.541,378.554Z" style="fill:rgb(0,108,199);fill-opacity:0.19;"/>
            <path d="M485.799,930.785L485.555,931.554L484.551,932.55L485.799,930.785Z" style="fill:rgb(0,108,199);fill-opacity:0.16;"/>
            <path d="M455.542,39.464C455.909,40.125 456.276,40.786 456.643,41.447C456.276,40.786 455.909,40.125 455.542,39.464Z" style="fill:rgb(0,108,198);fill-opacity:0.18;"/>
            <path d="M658.718,919.645C658.327,920.277 657.936,920.909 657.545,921.541C657.936,920.909 658.327,920.277 658.718,919.645Z" style="fill:rgb(0,109,201);fill-opacity:0.15;"/>
            <path d="M158.353,334.286C157.719,334.673 157.085,335.061 156.451,335.448C157.085,335.061 157.719,334.673 158.353,334.286Z" style="fill:rgb(0,108,199);fill-opacity:0.18;"/>
        </g>
    </g>
</svg>
